<?xml version="1.0" encoding="utf-8"?>
<!-- Generator: Adobe Illustrator 22.1.0, SVG Export Plug-In . SVG Version: 6.00 Build 0)  -->
<svg version="1.1" id="ia" xmlns="http://www.w3.org/2000/svg" xmlns:xlink="http://www.w3.org/1999/xlink" x="0px" y="0px"
	 viewBox="0 0 600 583.1" style="enable-background:new 0 0 600 583.1;" xml:space="preserve">
<style type="text/css">
	.st0{fill:#FFFFFF;}
</style>
<g id="A">
	<g>
		<path class="st0" d="M146.6,60L140,41.8h-22.4L111,60h-5.4L123,12.2c0.4-0.9,1.5-4.4,1.5-5.2c0-3.7-4-3.7-6.8-4.1V1h16.5L155.7,60
			L146.6,60L146.6,60z M128.5,12l-9.4,25.6h19.4L128.5,12z"/>
		<path class="st0" d="M221.8,60l-15.5-27.3h-5.4V60h-9.7V12.9c0-8.4,0-8.8-8.3-10V1h22.6c10.6,0,23.8,2.3,23.8,15.7
			c0,8.9-5.1,13.2-13.4,14.5L231.9,60L221.8,60L221.8,60z M206.7,5.1c-6.3,0-5.9,2.4-5.9,7.9v15.6h5c7.6,0,13.7-2.8,13.7-11.4
			C219.5,8.5,215,5.1,206.7,5.1z"/>
		<path class="st0" d="M287.7,60.9c-20.2,0-25.9-13.1-25.9-31.2c0-16.9,5.6-29,24.5-29c6,0,11.9,0.8,17.6,2.6l0.5,14.7h-2.5
			c-0.2-1.8-0.9-3.8-1.8-5.4c-2.7-4.7-7.3-7.7-12.8-7.7c-13.3,0-15,14.6-15,24.8c0,10.9,3.3,26.3,17,26.3c5.8,0,10.6-1.1,15.4-4.5
			v6.1C299,60,293.8,60.9,287.7,60.9z"/>
		<path class="st0" d="M376.8,60V31.3h-23.9V60h-9.7V12.6c0-7.6-1.4-7.8-8.8-8.6V2l18.4-2v27.2h23.9V1h9.7V60L376.8,60L376.8,60z"/>
		<path class="st0" d="M420.4,60v-2.2c6.6,0,7.5-1.8,7.5-8.2V11.9c0-6.4-0.9-8.2-7.5-8.2V1.6h24.6v2.2c-6.6,0-7.5,1.8-7.5,8.2v37.7
			c0,6.3,0.9,8.2,7.5,8.2V60C444.9,60,420.4,60,420.4,60z"/>
		<path class="st0" d="M509,60h-7.6l-17.2-47.8c-2.6-7.4-3.1-7.9-10.6-9.3V1h17l17.2,48.1h0.2L524.7,1h5.7L509,60z"/>
		<path class="st0" d="M599.7,60h-35V12.9c0-8.4-0.1-8.7-8.3-10V1h42l0.3,13h-2.5c0-6.6-3.2-8.9-9.5-8.9h-6.8c-4,0-5.5,0.1-5.5,4.6
			v17.5H585c5,0,6.4-2.3,7.2-6.8h2.5v18.4h-2.5c0-4.9-2.1-7.5-7.2-7.5h-10.6v19.6c0,4.8,1.1,5.1,5.5,5.1h9.7c6,0,7.5-3,7.9-8.6h2.5
			L599.7,60z"/>
	</g>
	<rect x="139.2" y="558.6" class="st0" width="423.3" height="21.7"/>
	<rect x="155.9" y="516.8" class="st0" width="390.7" height="30.1"/>
	<rect x="153.4" y="174.5" class="st0" width="388.6" height="41.7"/>
	<polygon class="st0" points="347.7,101.5 144.2,149.1 155.9,162 347.7,162 539.5,162 551.2,149.1 	"/>
	<g>
		<path class="st0" d="M59.1,583.1h-2.2c0-6.6-1.8-7.5-8.2-7.5H11c-6.4,0-8.2,0.9-8.2,7.5H0.6v-24.6h2.2c0,6.6,1.8,7.5,8.2,7.5h37.7
			c6.3,0,8.2-0.9,8.2-7.5h2.2V583.1z"/>
		<path class="st0" d="M59.1,486.7l-49.9,29v0.2h49.9v5.5H11.2c-8.2,0-7.9,1.3-9.3,8.8H0v-18.5l47.7-27.6v-0.2H0v-5.5h59.1V486.7z"
			/>
		<path class="st0" d="M13,399.9c-6.8,0-8.9,3-8.9,9.6v6h54.9v9.7H4.1v6.1c0,6.7,1.9,9,8.6,9.5v2.5L0,442.7v-44.9l13-0.4V399.9z"/>
		<path class="st0" d="M59.1,327.1v35H11.9c-8.4,0-8.7,0.1-10,8.3H0v-42l13-0.3v2.5c-6.6,0-8.9,3.2-8.9,9.5v6.8c0,4,0.1,5.5,4.6,5.5
			h17.5v-10.6c0-5-2.3-6.4-6.8-7.2v-2.5h18.4v2.5c-4.9,0-7.5,2.1-7.5,7.2v10.6h19.6c4.8,0,5.1-1.1,5.1-5.5v-9.7c0-6-3-7.5-8.6-7.9
			v-2.5L59.1,327.1z"/>
		<path class="st0" d="M59.1,256.4L31.8,272v5.4h27.3v9.7H11.9c-8.4,0-8.8,0-10,8.3H0v-22.6c0-10.6,2.3-23.8,15.7-23.8
			c8.9,0,13.2,5.1,14.5,13.4l28.9-16.1L59.1,256.4L59.1,256.4z M4.1,271.5c0,6.3,2.4,5.9,7.9,5.9h15.6v-5c0-7.6-2.8-13.7-11.4-13.7
			C7.5,258.7,4.1,263.2,4.1,271.5z"/>
		<path class="st0" d="M59.1,173.9l-49.9,29v0.2h49.9v5.5H11.2c-8.2,0-7.9,1.3-9.3,8.8H0v-18.5l47.7-27.6V171H0v-5.5h59.1V173.9z"/>
		<path class="st0" d="M59.1,87.7v35H11.9c-8.4,0-8.7,0.1-10,8.3H0V89l13-0.3v2.5c-6.6,0-8.9,3.2-8.9,9.5v6.8c0,4,0.1,5.5,4.6,5.5
			h17.5v-10.6c0-5-2.3-6.4-6.8-7.2v-2.5h18.4v2.5c-4.9,0-7.5,2.1-7.5,7.2V113h19.6c4.8,0,5.1-1.1,5.1-5.5v-9.7c0-6-3-7.5-8.6-7.9
			v-2.5L59.1,87.7z"/>
		<path class="st0" d="M13,12.2c-6.8,0-8.9,3-8.9,9.6v6h54.9v9.7H4.1v6.1c0,6.7,1.9,9,8.6,9.5v2.5L0,55V10.1l13-0.4V12.2z"/>
	</g>
	<path class="st0" d="M209.4,348.4c-0.3-20.5-0.9-41-1.7-61.5c-0.8-19.3-2-38.6-2.9-57.9c-0.1-1.7-0.8-2-2.2-2.3
		c-5.7-1.2-11.4-1.8-17.2-1.8c-5.7,0-11.5,0.6-17.2,1.8c-1.4,0.3-2.1,0.7-2.2,2.3c-0.9,19.3-2.2,38.6-2.9,57.9
		c-0.8,20.5-1.3,41-1.7,61.5c-0.2,14.5-0.1,29.1,0.1,43.6c0.3,16.1,0.6,32.2,1.3,48.4c0.7,17.3,1.8,34.6,2.7,51.8
		c0.2,3.3,0.5,6.6,0.8,9.8c6.4,1.7,12.7,2.6,19,2.7c6.3-0.1,12.6-1,19-2.7c0.3-3.2,0.6-6.5,0.8-9.8c0.9-17.3,2-34.6,2.7-51.8
		c0.7-16.1,1-32.2,1.3-48.4C209.5,377.5,209.7,362.9,209.4,348.4z"/>
	<path class="st0" d="M315.3,348.4c-0.3-20.5-0.9-41-1.7-61.5c-0.8-19.3-2-38.6-2.9-57.9c-0.1-1.7-0.8-2-2.2-2.3
		c-5.7-1.2-11.4-1.8-17.2-1.8c-5.7,0-11.5,0.6-17.2,1.8c-1.4,0.3-2.1,0.7-2.2,2.3c-0.9,19.3-2.2,38.6-2.9,57.9
		c-0.8,20.5-1.3,41-1.7,61.5c-0.2,14.5-0.1,29.1,0.1,43.6c0.3,16.1,0.6,32.2,1.3,48.4c0.7,17.3,1.8,34.6,2.7,51.8
		c0.2,3.3,0.5,6.6,0.8,9.8c6.4,1.7,12.7,2.6,19,2.7c6.3-0.1,12.6-1,19-2.7c0.3-3.2,0.6-6.5,0.8-9.8c0.9-17.3,2-34.6,2.7-51.8
		c0.7-16.1,1-32.2,1.3-48.4C315.3,377.5,315.5,362.9,315.3,348.4z"/>
	<path class="st0" d="M438,348.4c-0.3-20.5-0.9-41-1.7-61.5c-0.8-19.3-2-38.6-2.9-57.9c-0.1-1.7-0.8-2-2.2-2.3
		c-5.7-1.2-11.4-1.8-17.2-1.8c-5.7,0-11.5,0.6-17.2,1.8c-1.4,0.3-2.1,0.7-2.2,2.3c-0.9,19.3-2.2,38.6-2.9,57.9
		c-0.8,20.5-1.3,41-1.7,61.5c-0.2,14.5-0.1,29.1,0.1,43.6c0.3,16.1,0.6,32.2,1.3,48.4c0.7,17.3,1.8,34.6,2.7,51.8
		c0.2,3.3,0.5,6.6,0.8,9.8c6.4,1.7,12.7,2.6,19,2.7c6.3-0.1,12.6-1,19-2.7c0.3-3.2,0.6-6.5,0.8-9.8c0.9-17.3,2-34.6,2.7-51.8
		c0.7-16.1,1-32.2,1.3-48.4C438.1,377.5,438.2,362.9,438,348.4z"/>
	<path class="st0" d="M541.3,348.4c-0.3-20.5-0.9-41-1.7-61.5c-0.8-19.3-2-38.6-2.9-57.9c-0.1-1.7-0.8-2-2.2-2.3
		c-5.7-1.2-11.4-1.8-17.2-1.8c-5.7,0-11.5,0.6-17.2,1.8c-1.4,0.3-2.1,0.7-2.2,2.3c-0.9,19.3-2.2,38.6-2.9,57.9
		c-0.8,20.5-1.3,41-1.7,61.5c-0.2,14.5-0.1,29.1,0.1,43.6c0.3,16.1,0.6,32.2,1.3,48.4c0.7,17.3,1.8,34.6,2.7,51.8
		c0.2,3.3,0.5,6.6,0.8,9.8c6.4,1.7,12.7,2.6,19,2.7c6.3-0.1,12.6-1,19-2.7c0.3-3.2,0.6-6.5,0.8-9.8c0.9-17.3,2-34.6,2.7-51.8
		c0.7-16.1,1-32.2,1.3-48.4C541.4,377.5,541.5,362.9,541.3,348.4z"/>
</g>
</svg>
