<svg xmlns="http://www.w3.org/2000/svg" viewBox="0 0 600 583.1" focusable="false">
  <path fill="#FFF" class="st0" d="M146.6 60L140 41.8h-22.4L111 60h-5.4L123 12.2c.4-.9 1.5-4.4 1.5-5.2 0-3.7-4-3.7-6.8-4.1V1h16.5l21.5 59h-9.1zm-18.1-48l-9.4 25.6h19.4l-10-25.6zm93.3 48l-15.5-27.3h-5.4V60h-9.7V12.9c0-8.4 0-8.8-8.3-10V1h22.6c10.6 0 23.8 2.3 23.8 15.7 0 8.9-5.1 13.2-13.4 14.5l16 28.8h-10.1zM206.7 5.1c-6.3 0-5.9 2.4-5.9 7.9v15.6h5c7.6 0 13.7-2.8 13.7-11.4 0-8.7-4.5-12.1-12.8-12.1zm81 55.8c-20.2 0-25.9-13.1-25.9-31.2 0-16.9 5.6-29 24.5-29 6 0 11.9.8 17.6 2.6l.5 14.7h-2.5c-.2-1.8-.9-3.8-1.8-5.4-2.7-4.7-7.3-7.7-12.8-7.7-13.3 0-15 14.6-15 24.8 0 10.9 3.3 26.3 17 26.3 5.8 0 10.6-1.1 15.4-4.5v6.1c-5.7 2.4-10.9 3.3-17 3.3zm89.1-.9V31.3h-23.9V60h-9.7V12.6c0-7.6-1.4-7.8-8.8-8.6V2l18.4-2v27.2h23.9V1h9.7v59h-9.6zm43.6 0v-2.2c6.6 0 7.5-1.8 7.5-8.2V11.9c0-6.4-.9-8.2-7.5-8.2V1.6H445v2.2c-6.6 0-7.5 1.8-7.5 8.2v37.7c0 6.3.9 8.2 7.5 8.2V60h-24.6zm88.6 0h-7.6l-17.2-47.8c-2.6-7.4-3.1-7.9-10.6-9.3V1h17l17.2 48.1h.2L524.7 1h5.7L509 60zm90.7 0h-35V12.9c0-8.4-.1-8.7-8.3-10V1h42l.3 13h-2.5c0-6.6-3.2-8.9-9.5-8.9h-6.8c-4 0-5.5.1-5.5 4.6v17.5H585c5 0 6.4-2.3 7.2-6.8h2.5v18.4h-2.5c0-4.9-2.1-7.5-7.2-7.5h-10.6v19.6c0 4.8 1.1 5.1 5.5 5.1h9.7c6 0 7.5-3 7.9-8.6h2.5l-.3 12.6zM139.2 558.6h423.3v21.7H139.2zm16.7-41.8h390.7v30.1H155.9zm-2.5-342.3H542v41.7H153.4zm194.3-73l-203.5 47.6 11.7 12.9h383.6l11.7-12.9zM59.1 583.1h-2.2c0-6.6-1.8-7.5-8.2-7.5H11c-6.4 0-8.2.9-8.2 7.5H.6v-24.6h2.2c0 6.6 1.8 7.5 8.2 7.5h37.7c6.3 0 8.2-.9 8.2-7.5h2.2v24.6zm0-96.4l-49.9 29v.2h49.9v5.5H11.2c-8.2 0-7.9 1.3-9.3 8.8H0v-18.5l47.7-27.6v-.2H0v-5.5h59.1v8.3zM13 399.9c-6.8 0-8.9 3-8.9 9.6v6H59v9.7H4.1v6.1c0 6.7 1.9 9 8.6 9.5v2.5L0 442.7v-44.9l13-.4v2.5zm46.1-72.8v35H11.9c-8.4 0-8.7.1-10 8.3H0v-42l13-.3v2.5c-6.6 0-8.9 3.2-8.9 9.5v6.8c0 4 .1 5.5 4.6 5.5h17.5v-10.6c0-5-2.3-6.4-6.8-7.2v-2.5h18.4v2.5c-4.9 0-7.5 2.1-7.5 7.2v10.6h19.6c4.8 0 5.1-1.1 5.1-5.5v-9.7c0-6-3-7.5-8.6-7.9v-2.5l12.7.3zm0-70.7L31.8 272v5.4h27.3v9.7H11.9c-8.4 0-8.8 0-10 8.3H0v-22.6C0 262.2 2.3 249 15.7 249c8.9 0 13.2 5.1 14.5 13.4l28.9-16.1v10.1zm-55 15.1c0 6.3 2.4 5.9 7.9 5.9h15.6v-5c0-7.6-2.8-13.7-11.4-13.7-8.7 0-12.1 4.5-12.1 12.8zm55-97.6l-49.9 29v.2h49.9v5.5H11.2c-8.2 0-7.9 1.3-9.3 8.8H0v-18.5l47.7-27.6v-.3H0v-5.5h59.1v8.4zm0-86.2v35H11.9c-8.4 0-8.7.1-10 8.3H0V89l13-.3v2.5c-6.6 0-8.9 3.2-8.9 9.5v6.8c0 4 .1 5.5 4.6 5.5h17.5v-10.6c0-5-2.3-6.4-6.8-7.2v-2.5h18.4v2.5c-4.9 0-7.5 2.1-7.5 7.2V113h19.6c4.8 0 5.1-1.1 5.1-5.5v-9.7c0-6-3-7.5-8.6-7.9v-2.5l12.7.3zM13 12.2c-6.8 0-8.9 3-8.9 9.6v6H59v9.7H4.1v6.1c0 6.7 1.9 9 8.6 9.5v2.5L0 55V10.1l13-.4v2.5zm196.4 336.2c-.3-20.5-.9-41-1.7-61.5-.8-19.3-2-38.6-2.9-57.9-.1-1.7-.8-2-2.2-2.3-5.7-1.2-11.4-1.8-17.2-1.8-5.7 0-11.5.6-17.2 1.8-1.4.3-2.1.7-2.2 2.3-.9 19.3-2.2 38.6-2.9 57.9-.8 20.5-1.3 41-1.7 61.5-.2 14.5-.1 29.1.1 43.6.3 16.1.6 32.2 1.3 48.4.7 17.3 1.8 34.6 2.7 51.8.2 3.3.5 6.6.8 9.8 6.4 1.7 12.7 2.6 19 2.7 6.3-.1 12.6-1 19-2.7.3-3.2.6-6.5.8-9.8.9-17.3 2-34.6 2.7-51.8.7-16.1 1-32.2 1.3-48.4.4-14.5.6-29.1.3-43.6zm105.9 0c-.3-20.5-.9-41-1.7-61.5-.8-19.3-2-38.6-2.9-57.9-.1-1.7-.8-2-2.2-2.3-5.7-1.2-11.4-1.8-17.2-1.8-5.7 0-11.5.6-17.2 1.8-1.4.3-2.1.7-2.2 2.3-.9 19.3-2.2 38.6-2.9 57.9-.8 20.5-1.3 41-1.7 61.5-.2 14.5-.1 29.1.1 43.6.3 16.1.6 32.2 1.3 48.4.7 17.3 1.8 34.6 2.7 51.8.2 3.3.5 6.6.8 9.8 6.4 1.7 12.7 2.6 19 2.7 6.3-.1 12.6-1 19-2.7.3-3.2.6-6.5.8-9.8.9-17.3 2-34.6 2.7-51.8.7-16.1 1-32.2 1.3-48.4.3-14.5.5-29.1.3-43.6zm122.7 0c-.3-20.5-.9-41-1.7-61.5-.8-19.3-2-38.6-2.9-57.9-.1-1.7-.8-2-2.2-2.3-5.7-1.2-11.4-1.8-17.2-1.8-5.7 0-11.5.6-17.2 1.8-1.4.3-2.1.7-2.2 2.3-.9 19.3-2.2 38.6-2.9 57.9-.8 20.5-1.3 41-1.7 61.5-.2 14.5-.1 29.1.1 43.6.3 16.1.6 32.2 1.3 48.4.7 17.3 1.8 34.6 2.7 51.8.2 3.3.5 6.6.8 9.8 6.4 1.7 12.7 2.6 19 2.7 6.3-.1 12.6-1 19-2.7.3-3.2.6-6.5.8-9.8.9-17.3 2-34.6 2.7-51.8.7-16.1 1-32.2 1.3-48.4.4-14.5.5-29.1.3-43.6zm103.3 0c-.3-20.5-.9-41-1.7-61.5-.8-19.3-2-38.6-2.9-57.9-.1-1.7-.8-2-2.2-2.3-5.7-1.2-11.4-1.8-17.2-1.8-5.7 0-11.5.6-17.2 1.8-1.4.3-2.1.7-2.2 2.3-.9 19.3-2.2 38.6-2.9 57.9-.8 20.5-1.3 41-1.7 61.5-.2 14.5-.1 29.1.1 43.6.3 16.1.6 32.2 1.3 48.4.7 17.3 1.8 34.6 2.7 51.8.2 3.3.5 6.6.8 9.8 6.4 1.7 12.7 2.6 19 2.7 6.3-.1 12.6-1 19-2.7.3-3.2.6-6.5.8-9.8.9-17.3 2-34.6 2.7-51.8.7-16.1 1-32.2 1.3-48.4.4-14.5.5-29.1.3-43.6z"/>
</svg>
