<?xml version="1.0" encoding="utf-8"?>
<!-- Generator: Adobe Illustrator 22.0.1, SVG Export Plug-In . SVG Version: 6.00 Build 0)  -->
<svg version="1.1" id="mdn_logo_white" opacity="0.8"
	 xmlns="http://www.w3.org/2000/svg" xmlns:xlink="http://www.w3.org/1999/xlink" x="0px" y="0px" viewBox="0 0 205 40"
	 style="enable-background:new 0 0 205 40;" xml:space="preserve">
<g>
	<path d="M33,0.8L33,0.8L33,0.8L33,0.8L33,0.8L22,5.2L11,0.8l0,0l0,0l0,0l0,0L0,5.2v34.4l11-4.2l11,4.2l0,0l0,0l0,0l0,0l10.9-4.2
		l11,4.2V5.2L33,0.8z M37.2,20.8c-0.4,0.8-1.4,3.1-1,2.6c-0.4,0.5-0.7,0.6-1.7,0.4c-0.8,0.6-1.2,0.8-2.1,1.3c-1,0.2-3.1-0.5-4-0.7
		c-1.8-0.3-1.9,0.1-3.5,0.9c-2.3,1.1-1.8,4-2.7,5.6l0,0l0,0c0.1,0.2,0.1,0.4,0.2,0.5l0,0l0,0c0,0.2,0.1,0.3,0.1,0.5
		c-2.6,0.3-5.2-0.1-7.6-1.2c-1.8-0.9-3.4-2.2-4.7-3.8c0.3-0.2,0.6-0.3,0.9-0.5l0,0c0.2-0.1,0.4-0.2,0.5-0.3h-0.3
		C10.7,26,11.1,26,10.6,26c0.5-0.6,1.3-1.2,1.4-1.2l0.1-0.1c-0.7,0.2-1.7,0.5-2.2,1c0.2-0.9,0.9-1.5,1.2-2.3c-0.8,0.4-1.6,1-2.3,1.6
		c0-0.8,0.9-1.5,1.3-2.1c0.3-0.5,0.7-0.8,0.9-1.2C10.1,22,8.2,23,7.5,23.5c0.4-1.2,1.9-2.9,2.8-3.8c-0.8,0.1-2.7,1.2-3.4,1.6
		c0-0.1,0-0.1,0-0.2c0.6-0.9,2.4-2.4,3.3-3.2c-1,0.1-3,1.2-4,1.5C7,17.9,9.7,16.1,11,15l-3.1,0.8c-0.4,0.1-0.9,0.4-1.3,0.3
		c1.6-1.7,5-4.5,7.1-5.8c0,0,3-2.1,6-1.8c1.4,0.4,2.6,0.9,4,1.2c1.2-0.3,2.8-0.7,4,0.1c0.8,0.7,1.5,1.7,1.1,2.8
		c2.1,2.3,6.7,2.6,8,4.3c0.2,0.3,0.1,2.2,0.5,3.4L37.2,20.8z"/>
</g>
<g>
	<path d="M149.3,12.4l-2,4h-1l-2-4V17h-1.6V9.6h2.2l1.9,4.1l1.9-4.1h2.2V17h-1.6L149.3,12.4L149.3,12.4z"/>
	<path d="M158.7,16c-0.7,0.7-1.7,1.1-2.8,1.1s-2-0.4-2.8-1.1c-0.7-0.7-1.1-1.6-1.1-2.7c0-1.1,0.4-2,1.1-2.7c0.7-0.7,1.7-1.1,2.8-1.1
		s2,0.4,2.8,1.1c0.7,0.7,1.1,1.6,1.1,2.7C159.9,14.4,159.5,15.3,158.7,16z M158.2,13.3c0-0.7-0.2-1.2-0.6-1.7
		c-0.4-0.5-0.9-0.7-1.6-0.7s-1.1,0.2-1.6,0.7s-0.6,1-0.6,1.7s0.2,1.2,0.6,1.7c0.4,0.5,0.9,0.7,1.6,0.7s1.1-0.2,1.6-0.7
		C158,14.5,158.2,13.9,158.2,13.3z"/>
	<path d="M160.3,17v-1.1l3.9-4.8h-3.8V9.7h6v1.1l-3.9,4.8h3.9V17H160.3z"/>
	<path d="M167.6,9.6h1.6V17h-1.6V9.6z"/>
	<path d="M170.8,17V9.6h1.6v5.9h3.1V17H170.8z"/>
	<path d="M176.4,17V9.6h1.6v5.9h3.1V17H176.4z"/>
	<path d="M187.8,17l-0.7-1.6H184l-0.7,1.6h-1.8l3.2-7.4h1.6l3.2,7.4H187.8z M185.6,11.8l-0.9,2.1h1.8L185.6,11.8z"/>
	<path d="M148.4,19.7c0.7,0.6,1.1,1.5,1.1,2.7s-0.3,2.1-1,2.7c-0.7,0.7-1.7,1-3.1,1h-2.5v-7.4h2.6C146.7,18.7,147.7,19,148.4,19.7z
		 M147.2,24.2c0.4-0.4,0.6-0.9,0.6-1.7c0-0.7-0.2-1.3-0.6-1.7s-1-0.6-1.9-0.6h-0.9v4.5h1C146.2,24.7,146.8,24.6,147.2,24.2z"/>
	<path d="M155.9,18.7v1.5h-3.7v1.5h3.3v1.4h-3.3v1.5h3.8v1.5h-5.4v-7.4H155.9z"/>
	<path d="M160.1,23.5l1.9-4.7h1.8l-3,7.4h-1.4l-3-7.4h1.8L160.1,23.5z"/>
	<path d="M169.7,18.7v1.5H166v1.5h3.3v1.4H166v1.5h3.8v1.5h-5.4v-7.4H169.7z"/>
	<path d="M171,26.2v-7.4h1.6v5.9h3.1v1.5H171z"/>
	<path d="M182.8,25.2c-0.7,0.7-1.7,1.1-2.8,1.1s-2-0.4-2.8-1.1c-0.7-0.7-1.1-1.6-1.1-2.7s0.4-2,1.1-2.7s1.7-1.1,2.8-1.1
		s2,0.4,2.8,1.1c0.7,0.7,1.1,1.6,1.1,2.7C183.9,23.5,183.5,24.5,182.8,25.2z M182.1,22.5c0-0.7-0.2-1.2-0.6-1.7s-0.9-0.7-1.6-0.7
		c-0.6,0-1.1,0.2-1.6,0.7c-0.4,0.5-0.6,1-0.6,1.7s0.2,1.2,0.6,1.7s0.9,0.7,1.6,0.7c0.6,0,1.1-0.2,1.6-0.7
		C181.9,23.7,182.1,23.1,182.1,22.5z"/>
	<path d="M190.1,19.4c0.5,0.4,0.8,1.1,0.8,2s-0.3,1.6-0.8,2s-1.3,0.6-2.4,0.6h-1v2.1h-1.6v-7.4h2.6
		C188.7,18.7,189.6,18.9,190.1,19.4z M188.9,22.4c0.2-0.2,0.3-0.5,0.3-1s-0.1-0.7-0.4-0.9s-0.7-0.3-1.2-0.3h-0.9v2.5h1.1
		C188.3,22.7,188.7,22.6,188.9,22.4z"/>
	<path d="M197.1,18.7v1.5h-3.6v1.5h3.3v1.4h-3.3v1.5h3.8v1.5h-5.4v-7.4H197.1z"/>
	<path d="M204.5,21.3c0,1.2-0.5,1.9-1.4,2.3l1.9,2.6h-2l-1.6-2.4h-1.1v2.4h-1.8v-7.4h2.8c1.1,0,2,0.2,2.5,0.6
		C204.2,19.7,204.5,20.3,204.5,21.3z M202.5,22.1c0.2-0.2,0.3-0.5,0.3-0.9s-0.1-0.7-0.3-0.8s-0.6-0.2-1.1-0.2h-1.2v2.2h1.2
		C201.9,22.4,202.3,22.3,202.5,22.1z"/>
	<path d="M147.9,27.9h1.6v7.4h-1.6l-3.5-4.6v4.6h-1.6v-7.4h1.5l3.6,4.8V27.9L147.9,27.9z"/>
	<path d="M156.4,27.9v1.5h-3.7v1.5h3.3v1.4h-3.3v1.5h3.8v1.5h-5.4v-7.4H156.4z"/>
	<path d="M160.8,29.3v6h-1.6v-6h-2.1v-1.4h5.8v1.4H160.8z"/>
	<path d="M166.5,32.2l1.3-4.2h1.7l1.3,4.2l1.5-4.2h1.8l-2.6,7.4h-1.2l-1.6-5.1l-1.6,5.1h-1.2l-2.6-7.4h1.8L166.5,32.2z"/>
	<path d="M180.6,34.3c-0.7,0.7-1.7,1.1-2.8,1.1s-2-0.4-2.8-1.1c-0.7-0.7-1.1-1.6-1.1-2.7c0-1.1,0.4-2,1.1-2.7
		c0.7-0.7,1.7-1.1,2.8-1.1s2,0.4,2.8,1.1c0.7,0.7,1.1,1.6,1.1,2.7C181.8,32.6,181.4,33.5,180.6,34.3z M180.1,31.6
		c0-0.7-0.2-1.2-0.6-1.7s-0.9-0.7-1.6-0.7c-0.6,0-1.1,0.2-1.6,0.7c-0.4,0.5-0.6,1-0.6,1.7s0.2,1.2,0.6,1.7s0.9,0.7,1.6,0.7
		c0.6,0,1.1-0.2,1.6-0.7C179.9,32.8,180.1,32.2,180.1,31.6z"/>
	<path d="M188.9,30.4c0,1.2-0.5,1.9-1.4,2.3l1.9,2.6h-2l-1.6-2.4h-1.1v2.4h-1.6v-7.4h2.8c1.1,0,2,0.2,2.5,0.6
		C188.7,28.9,188.9,29.5,188.9,30.4z M186.9,31.2c0.2-0.2,0.3-0.5,0.3-0.9s-0.1-0.7-0.3-0.8s-0.6-0.2-1.1-0.2h-1.2v2.2h1.2
		C186.4,31.5,186.7,31.4,186.9,31.2z"/>
	<path d="M190.3,27.9h1.6v3l2.8-3h2l-2.9,3.3c0.3,0.4,0.7,1,1.4,2s1.2,1.7,1.5,2.1h-1.9l-2.2-2.9l-0.7,0.8v2.1h-1.6L190.3,27.9
		L190.3,27.9z"/>
</g>
<g>
	<path d="M75,18.9l-6.8,13.9h-3.4L58,18.9v16h-5.7V9.5H60l6.5,14l6.6-14h7.6V35H75L75,18.9L75,18.9z"/>
	<path d="M103.9,12.8c2.4,2.2,3.6,5.3,3.6,9.3s-1.2,7.1-3.5,9.4c-2.4,2.3-6,3.5-10.8,3.5h-8.7V9.5h9C97.9,9.5,101.4,10.6,103.9,12.8
		z M99.6,28c1.4-1.3,2.1-3.2,2.1-5.7s-0.7-4.4-2.1-5.8c-1.4-1.3-3.5-2-6.4-2H90V30h3.6C96.2,30,98.2,29.4,99.6,28z"/>
	<path d="M128.6,9.5h5.7V35h-5.7l-12.1-15.9V35h-5.7V9.5h5.3l12.5,16.4V9.5L128.6,9.5z"/>
</g>
</svg>
