<?xml version="1.0" encoding="utf-8"?>
<svg version="1.1" id="mdn_logo_white" xmlns="http://www.w3.org/2000/svg" xmlns:xlink="http://www.w3.org/1999/xlink" x="0px"
	 y="0px" viewBox="-921 824.2 205 40" enable-background="new -921 824.2 205 40" xml:space="preserve">
<g>
	<path fill="#FFFFFF" d="M-888,825L-888,825L-888,825L-888,825L-888,825l-11,4.4l-11-4.4l0,0l0,0l0,0l0,0l-11,4.4v34.4l11-4.2
		l11,4.2l0,0l0,0l0,0l0,0l10.9-4.2l11,4.2v-34.4L-888,825z M-883.8,845c-0.4,0.8-1.4,3.1-1,2.6c-0.4,0.5-0.7,0.6-1.7,0.4
		c-0.8,0.6-1.2,0.8-2.1,1.3c-1,0.2-3.1-0.5-4-0.7c-1.8-0.3-1.9,0.1-3.5,0.9c-2.3,1.1-1.8,4-2.7,5.6l0,0l0,0c0.1,0.2,0.1,0.4,0.2,0.5
		l0,0l0,0c0,0.2,0.1,0.3,0.1,0.5c-2.6,0.3-5.2-0.1-7.6-1.2c-1.8-0.9-3.4-2.2-4.7-3.8c0.3-0.2,0.6-0.3,0.9-0.5l0,0
		c0.2-0.1,0.4-0.2,0.5-0.3h-0.3c-0.6-0.1-0.2-0.1-0.7-0.1c0.5-0.6,1.3-1.2,1.4-1.2l0.1-0.1c-0.7,0.2-1.7,0.5-2.2,1
		c0.2-0.9,0.9-1.5,1.2-2.3c-0.8,0.4-1.6,1-2.3,1.6c0-0.8,0.9-1.5,1.3-2.1c0.3-0.5,0.7-0.8,0.9-1.2c-0.9,0.3-2.8,1.3-3.5,1.8
		c0.4-1.2,1.9-2.9,2.8-3.8c-0.8,0.1-2.7,1.2-3.4,1.6c0-0.1,0-0.1,0-0.2c0.6-0.9,2.4-2.4,3.3-3.2c-1,0.1-3,1.2-4,1.5
		c0.8-1.5,3.5-3.3,4.8-4.4l-3.1,0.8c-0.4,0.1-0.9,0.4-1.3,0.3c1.6-1.7,5-4.5,7.1-5.8c0,0,3-2.1,6-1.8c1.4,0.4,2.6,0.9,4,1.2
		c1.2-0.3,2.8-0.7,4,0.1c0.8,0.7,1.5,1.7,1.1,2.8c2.1,2.3,6.7,2.6,8,4.3c0.2,0.3,0.1,2.2,0.5,3.4L-883.8,845z"/>
</g>
<g>
	<path fill="#FFFFFF" d="M-771.7,836.6l-2,4h-1l-2-4v4.6h-1.6v-7.4h2.2l1.9,4.1l1.9-4.1h2.2v7.4h-1.6V836.6L-771.7,836.6z"/>
	<path fill="#FFFFFF" d="M-762.3,840.2c-0.7,0.7-1.7,1.1-2.8,1.1s-2-0.4-2.8-1.1c-0.7-0.7-1.1-1.6-1.1-2.7c0-1.1,0.4-2,1.1-2.7
		c0.7-0.7,1.7-1.1,2.8-1.1s2,0.4,2.8,1.1c0.7,0.7,1.1,1.6,1.1,2.7C-761.1,838.6-761.5,839.5-762.3,840.2z M-762.8,837.5
		c0-0.7-0.2-1.2-0.6-1.7c-0.4-0.5-0.9-0.7-1.6-0.7s-1.1,0.2-1.6,0.7s-0.6,1-0.6,1.7s0.2,1.2,0.6,1.7c0.4,0.5,0.9,0.7,1.6,0.7
		s1.1-0.2,1.6-0.7C-763,838.7-762.8,838.1-762.8,837.5z"/>
	<path fill="#FFFFFF" d="M-760.7,841.2v-1.1l3.9-4.8h-3.8v-1.4h6v1.1l-3.9,4.8h3.9v1.4H-760.7z"/>
	<path fill="#FFFFFF" d="M-753.4,833.8h1.6v7.4h-1.6V833.8z"/>
	<path fill="#FFFFFF" d="M-750.2,841.2v-7.4h1.6v5.9h3.1v1.5H-750.2z"/>
	<path fill="#FFFFFF" d="M-744.6,841.2v-7.4h1.6v5.9h3.1v1.5H-744.6z"/>
	<path fill="#FFFFFF" d="M-733.2,841.2l-0.7-1.6h-3.1l-0.7,1.6h-1.8l3.2-7.4h1.6l3.2,7.4H-733.2z M-735.4,836l-0.9,2.1h1.8
		L-735.4,836z"/>
	<path fill="#FFFFFF" d="M-772.6,843.9c0.7,0.6,1.1,1.5,1.1,2.7c0,1.2-0.3,2.1-1,2.7c-0.7,0.7-1.7,1-3.1,1h-2.5v-7.4h2.6
		C-774.3,842.9-773.3,843.2-772.6,843.9z M-773.8,848.4c0.4-0.4,0.6-0.9,0.6-1.7c0-0.7-0.2-1.3-0.6-1.7s-1-0.6-1.9-0.6h-0.9v4.5h1
		C-774.8,848.9-774.2,848.8-773.8,848.4z"/>
	<path fill="#FFFFFF" d="M-765.1,842.9v1.5h-3.7v1.5h3.3v1.4h-3.3v1.5h3.8v1.5h-5.4v-7.4C-770.4,842.9-765.1,842.9-765.1,842.9z"/>
	<path fill="#FFFFFF" d="M-760.9,847.7l1.9-4.7h1.8l-3,7.4h-1.4l-3-7.4h1.8L-760.9,847.7z"/>
	<path fill="#FFFFFF" d="M-751.3,842.9v1.5h-3.7v1.5h3.3v1.4h-3.3v1.5h3.8v1.5h-5.4v-7.4H-751.3z"/>
	<path fill="#FFFFFF" d="M-750,850.4V843h1.6v5.9h3.1v1.5H-750z"/>
	<path fill="#FFFFFF" d="M-738.2,849.4c-0.7,0.7-1.7,1.1-2.8,1.1s-2-0.4-2.8-1.1c-0.7-0.7-1.1-1.6-1.1-2.7s0.4-2,1.1-2.7
		s1.7-1.1,2.8-1.1s2,0.4,2.8,1.1c0.7,0.7,1.1,1.6,1.1,2.7C-737.1,847.7-737.5,848.7-738.2,849.4z M-738.9,846.7
		c0-0.7-0.2-1.2-0.6-1.7s-0.9-0.7-1.6-0.7c-0.6,0-1.1,0.2-1.6,0.7c-0.4,0.5-0.6,1-0.6,1.7s0.2,1.2,0.6,1.7s0.9,0.7,1.6,0.7
		c0.6,0,1.1-0.2,1.6-0.7C-739.1,847.9-738.9,847.3-738.9,846.7z"/>
	<path fill="#FFFFFF" d="M-730.9,843.6c0.5,0.4,0.8,1.1,0.8,2c0,0.9-0.3,1.6-0.8,2c-0.5,0.4-1.3,0.6-2.4,0.6h-1v2.1h-1.6v-7.4h2.6
		C-732.3,842.9-731.4,843.1-730.9,843.6z M-732.1,846.6c0.2-0.2,0.3-0.5,0.3-1s-0.1-0.7-0.4-0.9s-0.7-0.3-1.2-0.3h-0.9v2.5h1.1
		C-732.7,846.9-732.3,846.8-732.1,846.6z"/>
	<path fill="#FFFFFF" d="M-723.9,842.9v1.5h-3.6v1.5h3.3v1.4h-3.3v1.5h3.8v1.5h-5.4v-7.4H-723.9z"/>
	<path fill="#FFFFFF" d="M-716.5,845.5c0,1.2-0.5,1.9-1.4,2.3l1.9,2.6h-2l-1.6-2.4h-1.1v2.4h-1.8V843h2.8c1.1,0,2,0.2,2.5,0.6
		C-716.8,843.9-716.5,844.5-716.5,845.5z M-718.5,846.3c0.2-0.2,0.3-0.5,0.3-0.9c0-0.4-0.1-0.7-0.3-0.8c-0.2-0.1-0.6-0.2-1.1-0.2
		h-1.2v2.2h1.2C-719.1,846.6-718.7,846.5-718.5,846.3z"/>
	<path fill="#FFFFFF" d="M-773.1,852.1h1.6v7.4h-1.6l-3.5-4.6v4.6h-1.6v-7.4h1.5l3.6,4.8V852.1L-773.1,852.1z"/>
	<path fill="#FFFFFF" d="M-764.6,852.1v1.5h-3.7v1.5h3.3v1.4h-3.3v1.5h3.8v1.5h-5.4v-7.4H-764.6z"/>
	<path fill="#FFFFFF" d="M-760.2,853.5v6h-1.6v-6h-2.1v-1.4h5.8v1.4H-760.2z"/>
	<path fill="#FFFFFF" d="M-754.5,856.4l1.3-4.2h1.7l1.3,4.2l1.5-4.2h1.8l-2.6,7.4h-1.2l-1.6-5.1l-1.6,5.1h-1.2l-2.6-7.4h1.8
		L-754.5,856.4z"/>
	<path fill="#FFFFFF" d="M-740.4,858.5c-0.7,0.7-1.7,1.1-2.8,1.1s-2-0.4-2.8-1.1c-0.7-0.7-1.1-1.6-1.1-2.7c0-1.1,0.4-2,1.1-2.7
		c0.7-0.7,1.7-1.1,2.8-1.1s2,0.4,2.8,1.1c0.7,0.7,1.1,1.6,1.1,2.7C-739.2,856.8-739.6,857.7-740.4,858.5z M-740.9,855.8
		c0-0.7-0.2-1.2-0.6-1.7s-0.9-0.7-1.6-0.7c-0.6,0-1.1,0.2-1.6,0.7c-0.4,0.5-0.6,1-0.6,1.7c0,0.7,0.2,1.2,0.6,1.7s0.9,0.7,1.6,0.7
		c0.6,0,1.1-0.2,1.6-0.7C-741.1,857-740.9,856.4-740.9,855.8z"/>
	<path fill="#FFFFFF" d="M-732.1,854.6c0,1.2-0.5,1.9-1.4,2.3l1.9,2.6h-2l-1.6-2.4h-1.1v2.4h-1.6v-7.4h2.8c1.1,0,2,0.2,2.5,0.6
		C-732.3,853.1-732.1,853.7-732.1,854.6z M-734.1,855.4c0.2-0.2,0.3-0.5,0.3-0.9s-0.1-0.7-0.3-0.8c-0.2-0.1-0.6-0.2-1.1-0.2h-1.2
		v2.2h1.2C-734.6,855.7-734.3,855.6-734.1,855.4z"/>
	<path fill="#FFFFFF" d="M-730.7,852.1h1.6v3l2.8-3h2l-2.9,3.3c0.3,0.4,0.7,1,1.4,2c0.7,1,1.2,1.7,1.5,2.1h-1.9l-2.2-2.9l-0.7,0.8
		v2.1h-1.6L-730.7,852.1L-730.7,852.1z"/>
</g>
<g>
	<path fill="#FFFFFF" d="M-846,843.1l-6.8,13.9h-3.4l-6.8-13.9v16h-5.7v-25.4h7.7l6.5,14l6.6-14h7.6v25.5h-5.7V843.1z"/>
	<path fill="#FFFFFF" d="M-817.1,837c2.4,2.2,3.6,5.3,3.6,9.3s-1.2,7.1-3.5,9.4c-2.4,2.3-6,3.5-10.8,3.5h-8.7v-25.5h9
		C-823.1,833.7-819.6,834.8-817.1,837z M-821.4,852.2c1.4-1.3,2.1-3.2,2.1-5.7s-0.7-4.4-2.1-5.8c-1.4-1.3-3.5-2-6.4-2h-3.2v15.5h3.6
		C-824.8,854.2-822.8,853.6-821.4,852.2z"/>
	<path fill="#FFFFFF" d="M-792.4,833.7h5.7v25.5h-5.7l-12.1-15.9v15.9h-5.7v-25.5h5.3l12.5,16.4V833.7L-792.4,833.7z"/>
</g>
</svg>
