<svg xmlns="http://www.w3.org/2000/svg" viewBox="-921 824.2 205 40" focusable="false">
  <path fill="#FFF" d="M-888 825l-11 4.4-11-4.4-11 4.4v34.4l11-4.2 11 4.2 10.9-4.2 11 4.2v-34.4L-888 825zm4.2 20c-.4.8-1.4 3.1-1 2.6-.4.5-.7.6-1.7.4-.8.6-1.2.8-2.1 1.3-1 .2-3.1-.5-4-.7-1.8-.3-1.9.1-3.5.9-2.3 1.1-1.8 4-2.7 5.6.1.2.1.4.2.5 0 .2.1.3.1.5-2.6.3-5.2-.1-7.6-1.2-1.8-.9-3.4-2.2-4.7-3.8.3-.2.6-.3.9-.5.2-.1.4-.2.5-.3h-.3c-.6-.1-.2-.1-.7-.1.5-.6 1.3-1.2 1.4-1.2l.1-.1c-.7.2-1.7.5-2.2 1 .2-.9.9-1.5 1.2-2.3-.8.4-1.6 1-2.3 1.6 0-.8.9-1.5 1.3-2.1.3-.5.7-.8.9-1.2-.9.3-2.8 1.3-3.5 1.8.4-1.2 1.9-2.9 2.8-3.8-.8.1-2.7 1.2-3.4 1.6v-.2c.6-.9 2.4-2.4 3.3-3.2-1 .1-3 1.2-4 1.5.8-1.5 3.5-3.3 4.8-4.4l-3.1.8c-.4.1-.9.4-1.3.3 1.6-1.7 5-4.5 7.1-5.8 0 0 3-2.1 6-1.8 1.4.4 2.6.9 4 1.2 1.2-.3 2.8-.7 4 .1.8.7 1.5 1.7 1.1 2.8 2.1 2.3 6.7 2.6 8 4.3.2.3.1 2.2.5 3.4l-.1.5zm112.1-8.4l-2 4h-1l-2-4v4.6h-1.6v-7.4h2.2l1.9 4.1 1.9-4.1h2.2v7.4h-1.6v-4.6zm9.4 3.6c-.7.7-1.7 1.1-2.8 1.1s-2-.4-2.8-1.1c-.7-.7-1.1-1.6-1.1-2.7s.4-2 1.1-2.7c.7-.7 1.7-1.1 2.8-1.1s2 .4 2.8 1.1c.7.7 1.1 1.6 1.1 2.7.1 1.1-.3 2-1.1 2.7zm-.5-2.7c0-.7-.2-1.2-.6-1.7-.4-.5-.9-.7-1.6-.7s-1.1.2-1.6.7-.6 1-.6 1.7.2 1.2.6 1.7c.4.5.9.7 1.6.7s1.1-.2 1.6-.7c.4-.5.6-1.1.6-1.7zm2.1 3.7v-1.1l3.9-4.8h-3.8v-1.4h6v1.1l-3.9 4.8h3.9v1.4h-6.1zm7.3-7.4h1.6v7.4h-1.6v-7.4zm3.2 7.4v-7.4h1.6v5.9h3.1v1.5h-4.7zm5.6 0v-7.4h1.6v5.9h3.1v1.5h-4.7zm11.4 0l-.7-1.6h-3.1l-.7 1.6h-1.8l3.2-7.4h1.6l3.2 7.4h-1.7zm-2.2-5.2l-.9 2.1h1.8l-.9-2.1zm-37.2 7.9c.7.6 1.1 1.5 1.1 2.7 0 1.2-.3 2.1-1 2.7-.7.7-1.7 1-3.1 1h-2.5v-7.4h2.6c1.2 0 2.2.3 2.9 1zm-1.2 4.5c.4-.4.6-.9.6-1.7 0-.7-.2-1.3-.6-1.7s-1-.6-1.9-.6h-.9v4.5h1c.8 0 1.4-.1 1.8-.5zm8.7-5.5v1.5h-3.7v1.5h3.3v1.4h-3.3v1.5h3.8v1.5h-5.4v-7.4h5.3zm4.2 4.8l1.9-4.7h1.8l-3 7.4h-1.4l-3-7.4h1.8l1.9 4.7zm9.6-4.8v1.5h-3.7v1.5h3.3v1.4h-3.3v1.5h3.8v1.5h-5.4v-7.4h5.3zm1.3 7.5V843h1.6v5.9h3.1v1.5h-4.7zm11.8-1c-.7.7-1.7 1.1-2.8 1.1s-2-.4-2.8-1.1c-.7-.7-1.1-1.6-1.1-2.7s.4-2 1.1-2.7 1.7-1.1 2.8-1.1 2 .4 2.8 1.1c.7.7 1.1 1.6 1.1 2.7 0 1-.4 2-1.1 2.7zm-.7-2.7c0-.7-.2-1.2-.6-1.7s-.9-.7-1.6-.7c-.6 0-1.1.2-1.6.7-.4.5-.6 1-.6 1.7s.2 1.2.6 1.7.9.7 1.6.7c.6 0 1.1-.2 1.6-.7.4-.5.6-1.1.6-1.7zm8-3.1c.5.4.8 1.1.8 2 0 .9-.3 1.6-.8 2-.5.4-1.3.6-2.4.6h-1v2.1h-1.6v-7.4h2.6c1 0 1.9.2 2.4.7zm-1.2 3c.2-.2.3-.5.3-1s-.1-.7-.4-.9-.7-.3-1.2-.3h-.9v2.5h1.1c.5 0 .9-.1 1.1-.3zm8.2-3.7v1.5h-3.6v1.5h3.3v1.4h-3.3v1.5h3.8v1.5h-5.4v-7.4h5.2zm7.4 2.6c0 1.2-.5 1.9-1.4 2.3l1.9 2.6h-2l-1.6-2.4h-1.1v2.4h-1.8V843h2.8c1.1 0 2 .2 2.5.6.4.3.7.9.7 1.9zm-2 .8c.2-.2.3-.5.3-.9s-.1-.7-.3-.8c-.2-.1-.6-.2-1.1-.2h-1.2v2.2h1.2c.5 0 .9-.1 1.1-.3zm-54.6 5.8h1.6v7.4h-1.6l-3.5-4.6v4.6h-1.6v-7.4h1.5l3.6 4.8v-4.8zm8.5 0v1.5h-3.7v1.5h3.3v1.4h-3.3v1.5h3.8v1.5h-5.4v-7.4h5.3zm4.4 1.4v6h-1.6v-6h-2.1v-1.4h5.8v1.4h-2.1zm5.7 2.9l1.3-4.2h1.7l1.3 4.2 1.5-4.2h1.8l-2.6 7.4h-1.2l-1.6-5.1-1.6 5.1h-1.2l-2.6-7.4h1.8l1.4 4.2zm14.1 2.1c-.7.7-1.7 1.1-2.8 1.1s-2-.4-2.8-1.1c-.7-.7-1.1-1.6-1.1-2.7s.4-2 1.1-2.7c.7-.7 1.7-1.1 2.8-1.1s2 .4 2.8 1.1c.7.7 1.1 1.6 1.1 2.7.1 1-.3 1.9-1.1 2.7zm-.5-2.7c0-.7-.2-1.2-.6-1.7s-.9-.7-1.6-.7c-.6 0-1.1.2-1.6.7-.4.5-.6 1-.6 1.7s.2 1.2.6 1.7.9.7 1.6.7c.6 0 1.1-.2 1.6-.7.4-.5.6-1.1.6-1.7zm8.8-1.2c0 1.2-.5 1.9-1.4 2.3l1.9 2.6h-2l-1.6-2.4h-1.1v2.4h-1.6v-7.4h2.8c1.1 0 2 .2 2.5.6.3.4.5 1 .5 1.9zm-2 .8c.2-.2.3-.5.3-.9s-.1-.7-.3-.8c-.2-.1-.6-.2-1.1-.2h-1.2v2.2h1.2c.6 0 .9-.1 1.1-.3zm3.4-3.3h1.6v3l2.8-3h2l-2.9 3.3c.3.4.7 1 1.4 2s1.2 1.7 1.5 2.1h-1.9l-2.2-2.9-.7.8v2.1h-1.6v-7.4zm-115.3-9l-6.8 13.9h-3.4l-6.8-13.9v16h-5.7v-25.4h7.7l6.5 14 6.6-14h7.6v25.5h-5.7v-16.1zm28.9-6.1c2.4 2.2 3.6 5.3 3.6 9.3s-1.2 7.1-3.5 9.4c-2.4 2.3-6 3.5-10.8 3.5h-8.7v-25.5h9c4.4 0 7.9 1.1 10.4 3.3zm-4.3 15.2c1.4-1.3 2.1-3.2 2.1-5.7s-.7-4.4-2.1-5.8c-1.4-1.3-3.5-2-6.4-2h-3.2v15.5h3.6c2.6 0 4.6-.6 6-2zm29-18.5h5.7v25.5h-5.7l-12.1-15.9v15.9h-5.7v-25.5h5.3l12.5 16.4v-16.4z"/>
</svg>
