<svg xmlns="http://www.w3.org/2000/svg" viewBox="0 0 482.79 486.16" focusable="false">
  <path d="M431.69 358.34c32-37.64 51.11-85 51.11-136.5C482.8 99.28 374.72 0 241.4 0S0 99.28 0 221.84s108.08 221.84 241.4 221.84a259.65 259.65 0 0086.2-14.58 7.78 7.78 0 018.81 2.77c20.17 27.23 51.67 46.38 86.7 54.17a4.79 4.79 0 004.74-7.65 94.37 94.37 0 014-120.11zM355.9 195.76l-62.17 47.19 22.56 74.72a7.06 7.06 0 01-10.79 7.84l-64.1-44.55-64.09 44.55a7.06 7.06 0 01-10.79-7.84l22.56-74.72-62.18-47.19a7.06 7.06 0 014.12-12.68l78-1.63 25.67-73.71a7.06 7.06 0 0113.33 0l25.67 73.71 78 1.63a7.06 7.06 0 014.21 12.68z" fill="#9f87fd"/>
</svg>
