<svg xmlns="http://www.w3.org/2000/svg" viewBox="0 0 144 144" fill="#a18aff"><path d="M139.74,90.93c0-.08-.07-.12-18.88-18.94l18.76-18.77a.58.58,0,0,0,0-.84l-28.8-28.8a.58.58,0,0,0-.84,0L91.21,42.35,72.42,23.58a.58.58,0,0,0-.84,0L52.8,42.35,34,23.58a.58.58,0,0,0-.84,0L4.38,52.38a.58.58,0,0,0,0,.84L23.15,72,4.38,90.78a.58.58,0,0,0,0,.84l28.8,28.8a.58.58,0,0,0,.84,0L52.8,101.65l18.78,18.77a.6.6,0,0,0,.84,0L91.2,101.65,110,120.42a.58.58,0,0,0,.84,0l14.42-14.37,9.9-9.89C139.94,91.35,139.94,91.35,139.74,90.93ZM110.4,24.85,138.35,52.8,120,71.14l-8.75-8.75,9.16-9.17a.58.58,0,0,0,0-.84l-9.6-9.6a.58.58,0,0,0-.84,0l-9.17,9.16-8.76-8.75ZM33.6,61.55,24.85,52.8l8.75-8.75,8.75,8.75Zm9.6-7.9L52,62.4,43.2,71.15,34.45,62.4ZM42.35,72,33.6,80.75,24.85,72l8.75-8.75Zm0,19.2L33.6,100,24.85,91.2l8.75-8.75Zm-7.9-9.6,8.75-8.75L52,81.6,43.2,90.35Zm9.6-9.6,8.75-8.75L61.55,72,52.8,80.75Zm28.8-9.6,8.75-8.75,8.75,8.75L81.6,71.15Zm7.9,9.6L72,80.75,63.25,72,72,63.25ZM72,61.55,63.25,52.8,72,44.05l8.75,8.75Zm-.85.85L62.4,71.15,53.65,62.4l8.75-8.75ZM62.4,72.85l8.75,8.75L62.4,90.35,53.65,81.6Zm9.6,9.6,8.75,8.75L72,100,63.25,91.2Zm.85-.85,8.75-8.75,8.75,8.75L81.6,90.35Zm9.6-9.6,8.75-8.75L100,72,91.2,80.75Zm27.11-9.61-8.76,8.76L92.05,62.4l8.76-8.76Zm-7.9-9.6,8.74-8.74,8.75,8.75-8.74,8.74Q106.41,57.55,101.66,52.79Zm-.86,20.06,8.75,8.75-8.75,8.75L92.05,81.6Zm9.6,9.6,8.75,8.75L110.4,100l-8.75-8.75ZM101.65,72l8.76-8.76L119.16,72l-8.76,8.76ZM100,52.79,91.2,61.55,82.45,52.8,91.21,44ZM72,24.85,90.36,43.2,81.6,52l-9.18-9.17a.58.58,0,0,0-.84,0L62.4,52,53.65,43.2ZM61.55,52.8,52.8,61.55,44.05,52.8l8.75-8.75Zm-55.9,0,28-27.95L52,43.2,43.2,52,34,42.78a.58.58,0,0,0-.84,0l-9.6,9.6a.58.58,0,0,0,0,.84l9.17,9.18L24,71.15Zm28,66.35L5.65,91.2,24,72.85l8.75,8.75-9.17,9.18a.58.58,0,0,0,0,.84l9.6,9.6a.58.58,0,0,0,.84,0l9.18-9.17L52,100.8ZM44.05,91.2l8.75-8.75,8.75,8.75L52.8,100Zm28,28L53.65,100.8l8.75-8.75,9.18,9.17a.58.58,0,0,0,.84,0l9.18-9.17,8.75,8.75ZM82.45,91.2l8.75-8.75L100,91.2,91.2,100Zm28,28L92.05,100.8l8.75-8.75,9.18,9.17a.58.58,0,0,0,.84,0l9.6-9.6a.58.58,0,0,0,0-.84l-9.17-9.18L120,72.84l18.36,18.37C135.68,94,119.52,110.07,110.4,119.15Z"/></svg>