<svg xmlns="http://www.w3.org/2000/svg" xmlns:xlink="http://www.w3.org/1999/xlink" viewBox="0 0 144 144" focusable="false">
  <defs>
    <path id="a" transform="rotate(-45.001 72 72.001)" d="M21.1 21.1h101.8v101.8H21.1z"/>
  </defs>
  <clipPath id="b">
    <use xlink:href="#a" overflow="visible"/>
  </clipPath>
  <path d="M236.5 118c-.1-.2-.2-.3-45.8-46l45.6-45.6c.6-.6.6-1.5 0-2.1l-69.9-69.9c-.6-.6-1.5-.6-2.1 0L118.6 0C105.1-13.6 89.9-28.7 73-45.6c-.6-.6-1.5-.6-2.1 0L25.4 0l-45.6-45.6c-.6-.6-1.5-.6-2.1 0l-69.9 69.9c-.6.6-.6 1.5 0 2.1L-46.6 72l-45.6 45.6c-.6.6-.6 1.5 0 2.1l69.9 69.9c.3.3.7.4 1 .4.4 0 .7-.1 1-.4L25.4 144 71 189.6c.5.6 1.5.6 2.1 0l45.6-45.6 45.6 45.6c.6.6 1.5.6 2.1 0 0 0 17.5-17.4 35-34.9l24-24C237 119 237 119 236.5 118zM165.2-42.5l67.9 67.9-44.5 44.5-21.3-21.3 22.3-22.3c.6-.6.6-1.5 0-2.1L166.3 1c-.6-.6-1.5-.6-2.1 0L142 23.3c-6.6-6.6-13.7-13.7-21.3-21.2l44.5-44.6zM-21.2 46.6l-21.3-21.3L-21.2 4 0 25.4l-21.2 21.2zM2.1 27.4l21.3 21.3L2.1 69.9l-21.3-21.3L2.1 27.4zM0 72l-21.3 21.3L-42.5 72l21.3-21.3L0 72zm0 46.6l-21.3 21.3-21.3-21.3 21.3-21.3L0 118.6zm-19.2-23.3L2.1 74.1l21.3 21.3-21.3 21.2-21.3-21.3zM4.1 72l21.3-21.3L46.6 72 25.4 93.3 4.1 72zm70-23.3l21.3-21.3 21.3 21.3-21.4 21.2-21.2-21.2zM93.3 72L72 93.3 50.7 72 72 50.7 93.3 72zM72 46.6L50.7 25.4 72 4.1l21.3 21.3L72 46.6zm-2.1 2.1L48.7 69.9 27.4 48.7l21.3-21.3 21.2 21.3zM48.7 74.1L70 95.4l-21.3 21.3-21.3-21.4 21.3-21.2zM72 97.4l21.3 21.3L72 139.9l-21.3-21.3L72 97.4zm2.1-2.1L95.4 74l21.3 21.3-21.3 21.3-21.3-21.3zM97.4 72l21.3-21.3L139.9 72l-21.3 21.3L97.4 72zm65.8-23.3L141.9 70l-21.3-21.3L142 27.4c7 7.1 14.2 14.2 21.2 21.3zM144 25.4l21.2-21.2 21.3 21.3-21.2 21.2c-6.5-6.6-13.6-13.6-21.3-21.3zm-2.1 48.7l21.3 21.3-21.3 21.3-21.3-21.3 21.3-21.3zm23.3 23.3l21.3 21.3-21.3 21.3-21.2-21.4 21.2-21.2zM144 72l21.3-21.3L186.6 72l-21.3 21.3L144 72zm-4.1-46.6l-21.3 21.3-21.2-21.3 21.3-21.3c6.7 6.8 13.9 14 21.2 21.3zM72-42.5l44.6 44.6-21.3 21.2L73 1c-.3-.3-.7-1.9-1-1.9S71.3.7 71 1L48.7 23.3 27.4 2.1 72-42.5zM46.6 25.4L25.4 46.6 4.1 25.4 25.4 4.1l21.2 21.3zm-135.7 0l67.9-67.9L23.3 2.1 2.1 23.3-20.2 1c-.6-.6-1.5-.6-2.1 0l-23.3 23.3c-.3.3-.4.6-.4 1s.2.8.4 1l22.3 22.3-21.3 21.3-44.5-44.5zm67.9 161.1l-67.9-67.9L-44.5 74l21.3 21.3-22.3 22.3c-.3.3-.4.6-.4 1s.2.8.4 1l23.3 23.3c.6.6 1.5.6 2.1 0l22.3-22.3 21.3 21.3-44.7 44.6zm25.3-67.9l21.3-21.3 21.3 21.3-21.3 21.3-21.3-21.3zM72 186.5l-44.6-44.6 21.3-21.3L71 143c.3.3.7 1.9 1 1.9.4 0 .7-1.6 1-1.9l22.3-22.3 21.3 21.3L72 186.5zm25.4-67.9l21.3-21.3 21.3 21.3-21.3 21.3-21.3-21.3zm67.9 67.9l-44.6-44.6 21.3-21.3 22.3 22.3c.6.6 1.5.6 2.1 0l23.3-23.3c.6-.6.6-1.5 0-2.1l-22.3-22.3L188.6 74l44.6 44.6c-6.6 6.7-45.8 45.8-67.9 67.9z" clip-path="url(#b)" fill="#a18aff"/>
</svg>
