<svg version="1.1" id="knot" xmlns="http://www.w3.org/2000/svg" xmlns:xlink="http://www.w3.org/1999/xlink" x="0px" y="0px" viewBox="0 0 144 144" style="enable-background:new 0 0 144 144;" xml:space="preserve"><style type="text/css">.st0{clip-path:url(#diamond_1_);fill:#A18AFF;}</style><g id="knot-clip-group"><defs><rect id="diamond" x="21.1" y="21.1" transform="matrix(0.7071 -0.7071 0.7071 0.7071 -29.8234 72)" width="101.8" height="101.8"/></defs><clipPath id="diamond_1_"><use xlink:href="#diamond"  style="overflow:visible;"/></clipPath><path id="knot-path" class="st0" d="M236.5,118c-0.1-0.2-0.2-0.3-45.8-46l45.6-45.6c0.6-0.6,0.6-1.5,0-2.1l-69.9-69.9 c-0.6-0.6-1.5-0.6-2.1,0L118.6,0C105.1-13.6,89.9-28.7,73-45.6c-0.6-0.6-1.5-0.6-2.1,0L25.4,0l-45.6-45.6c-0.6-0.6-1.5-0.6-2.1,0 l-69.9,69.9c-0.6,0.6-0.6,1.5,0,2.1L-46.6,72l-45.6,45.6c-0.6,0.6-0.6,1.5,0,2.1l69.9,69.9c0.3,0.3,0.7,0.4,1,0.4 c0.4,0,0.7-0.1,1-0.4L25.4,144L71,189.6c0.5,0.6,1.5,0.6,2.1,0l45.6-45.6l45.6,45.6c0.6,0.6,1.5,0.6,2.1,0c0,0,17.5-17.4,35-34.9 c8.7-8.7,17.5-17.5,24-24C237,119,237,119,236.5,118z M165.2-42.5l67.9,67.9l-44.5,44.5c-6.2-6.2-13.3-13.3-21.3-21.3l22.3-22.3 c0.6-0.6,0.6-1.5,0-2.1L166.3,1c-0.6-0.6-1.5-0.6-2.1,0L142,23.3c-6.6-6.6-13.7-13.7-21.3-21.2L165.2-42.5z M-21.2,46.6l-21.3-21.3 l21.3-21.3L0,25.4L-21.2,46.6z M2.1,27.4l21.3,21.3L2.1,69.9l-21.3-21.3L2.1,27.4z M0,72l-21.3,21.3L-42.5,72l21.3-21.3L0,72z M0,118.6l-21.3,21.3l-21.3-21.3l21.3-21.3L0,118.6z M-19.2,95.3L2.1,74.1l21.3,21.3L2.1,116.6L-19.2,95.3z M4.1,72l21.3-21.3 L46.6,72L25.4,93.3L4.1,72z M74.1,48.7l21.3-21.3l21.3,21.3L95.3,69.9L74.1,48.7z M93.3,72L72,93.3L50.7,72L72,50.7L93.3,72z M72,46.6L50.7,25.4L72,4.1l21.3,21.3L72,46.6z M69.9,48.7L48.7,69.9L27.4,48.7l21.3-21.3L69.9,48.7z M48.7,74.1l21.3,21.3 l-21.3,21.3L27.4,95.3L48.7,74.1z M72,97.4l21.3,21.3L72,139.9l-21.3-21.3L72,97.4z M74.1,95.3l21.3-21.3l21.3,21.3l-21.3,21.3 L74.1,95.3z M97.4,72l21.3-21.3L139.9,72l-21.3,21.3L97.4,72z M163.2,48.7l-21.3,21.3l-21.3-21.3L142,27.4 C149,34.5,156.2,41.6,163.2,48.7z M144,25.4l21.2-21.2l21.3,21.3l-21.2,21.2C158.8,40.1,151.7,33.1,144,25.4z M141.9,74.1 l21.3,21.3l-21.3,21.3l-21.3-21.3L141.9,74.1z M165.2,97.4l21.3,21.3l-21.3,21.3L144,118.6L165.2,97.4z M144,72l21.3-21.3 c7.3,7.3,14.5,14.5,21.3,21.3l-21.3,21.3L144,72z M139.9,25.4l-21.3,21.3L97.4,25.4l21.3-21.3C125.4,10.9,132.6,18.1,139.9,25.4z M72-42.5c4.4,4.4,22.2,22.2,44.6,44.6L95.3,23.3L73,1c-0.3-0.3-0.7-1.9-1-1.9S71.3,0.7,71,1L48.7,23.3L27.4,2.1L72-42.5z M46.6,25.4L25.4,46.6L4.1,25.4L25.4,4.1L46.6,25.4z M-89.1,25.4l67.9-67.9L23.3,2.1L2.1,23.3L-20.2,1c-0.6-0.6-1.5-0.6-2.1,0 l-23.3,23.3c-0.3,0.3-0.4,0.6-0.4,1s0.2,0.8,0.4,1l22.3,22.3l-21.3,21.3L-89.1,25.4z M-21.2,186.5l-67.9-67.9l44.6-44.6l21.3,21.3 l-22.3,22.3c-0.3,0.3-0.4,0.6-0.4,1s0.2,0.8,0.4,1l23.3,23.3c0.6,0.6,1.5,0.6,2.1,0l22.3-22.3l21.3,21.3L-21.2,186.5z M4.1,118.6 l21.3-21.3l21.3,21.3l-21.3,21.3L4.1,118.6z M72,186.5l-44.6-44.6l21.3-21.3L71,143c0.3,0.3,0.7,1.9,1,1.9c0.4,0,0.7-1.6,1-1.9 l22.3-22.3l21.3,21.3L72,186.5z M97.4,118.6l21.3-21.3l21.3,21.3l-21.3,21.3L97.4,118.6z M165.3,186.5l-44.6-44.6l21.3-21.3 l22.3,22.3c0.6,0.6,1.5,0.6,2.1,0l23.3-23.3c0.6-0.6,0.6-1.5,0-2.1l-22.3-22.3L188.6,74c22.4,22.4,40.3,40.3,44.6,44.6 C226.6,125.3,187.4,164.4,165.3,186.5z"/></g></svg>