<svg xmlns="http://www.w3.org/2000/svg" version="1.0" width="900" height="900" focusable="false">
  <path d="M750 450a300 300 0 11-600 0 300 300 0 11600 0z" fill="#396"/>
  <path d="M450 0C296.442 0 160.78 77.047 79.562 194.563l87 50.25C230.185 157.105 333.44 100 450 100s219.815 57.105 283.438 144.813l87-50.25C739.22 77.046 603.558 0 450 0z" fill="#900"/>
  <path d="M32.188 282.75C11.448 334.467 0 390.9 0 450c0 231.504 175.097 422.357 400 447.25V796.375C230.47 772.078 100 626.215 100 450c0-40.892 7.03-80.136 19.938-116.625l-87.75-50.625zm835.625 0l-87.75 50.625C792.968 369.864 800 409.108 800 450c0 176.215-130.47 322.078-300 346.375V897.25C724.902 872.357 900 681.504 900 450c0-59.1-11.448-115.533-32.188-167.25z" fill="#069"/>
  <path d="M352.905 228.907s1.714 12.342-6.874 19.905c-19.44 17.122-47.407 38.503-50.5 46.407-3.092 7.903 1.031 19.25 1.031 19.25s-8.938 4.473-11 17.875c-1.108 7.204 9.968 19.905 9.968 19.905s-8.936 4.474-8.592 15.47c.129 4.136 3.094 8.25 3.094 8.25s8.595-2.063 13.062-3.438c4.467-1.374 6.156 0 6.156 0s-13.718 14.443-12 28.188 11.656 24.719 11.656 24.719 5.16-19.908 14.094-22.313c8.934-2.405 10.313-1.031 10.313-1.031-2.964 12.71-4.249 31.604-.344 47.406 0 0-61.974 8.134-65.969 15.125-5.498 9.622 32.656 70.781 32.656 70.781s-23.383 21.662-41.251 38.156c-7.15 6.6-19.592 21.657-19.592 21.657s8.597 9.25 18.218 8.906c9.622-.344 13.063-2.063 13.063-2.063s8.228-17.508 27.471-37.095c19.244-19.587 86.623-69.404 86.623-69.404s15.442 7.907 28.156 12.375c12.714 4.467 34.375 6.5 34.375 6.5s-12.006 18.574-12.375 25.78C433.656 553.62 449.813 577 449.813 577s-34.72 3.438-36.782 5.844c-2.062 2.405-22.312 41.218-22.312 41.218s-2.435 8.252 5.469 12.375c7.903 4.124 14.78-.687 14.78-.687s5.936-13.238 7.564-26.125c2.069-16.368 20.627-12.375 30.249-11.688 9.621.688 24.75-3.407 25.438-7.187.687-3.78 1.031-34.033 4.468-38.5 3.436-4.467 21.28-2.408 21.28-2.408s-7.217 26.814-4.811 34.374c2.405 7.56 18.218 23.347 18.218 23.347s-37.438 32.658-41.905 39.187c-4.467 6.529-11 20.625-11.344 21.656-.344 1.031 12.692 10.312 24.031 7.907 11.34-2.406.367-17.103 12.031-29.563 17.144-18.313 38.844-23.722 41.25-29.22 2.405-5.498-14.778-35.72-7.562-45.34 7.216-9.622 34.001-36.788 37.437-49.846 3.437-13.058 2.063-41.906 2.063-41.906s20.97-3.094 20.97 8.594c0 36.08-24.165 34.702-24.751 66.312-.542 29.212 21.797 48.376 36.436 49.468 23.023 1.718 52.564-43.28 52.564-43.28s-28.263 3.018-29.533-4.813c-2.062-12.714 39.157-26.108 31.94-60.47-7.215-34.363-32.884-47.69-42.251-46.405-17.525 2.405-30.944 17.53-47.781 13.062-16.838-4.467-25.075-12.724-50.503-23.72-25.429-10.996-31.6-8.913-57.372-31.936-15.412-13.768-26.21-15.392-29.564-44.689-1.685-14.716 7.564-18.217 7.564-18.217s4.47 14.095 7.562 17.187c3.093 3.093 6.192 23.72 16.157 23.72 9.966 0 19.219-13.757 18.532-25.44-.688-11.684 1.745-26.415 8.593-33.655 12.027-12.714 11.687-36.437 11.687-36.437l66.312-48.781-71.468 30.906c4.825-6.555 1.47-15.836 1.375-24.031-3.59 5.964-6.7 12.134-16.5 15.437 0 0-10.282-3.437-12.344-3.437-2.062 0-9.625-.344-9.625-.344 1.581-8.55-7.739-14.373-12.719-21.281-.765 7.548-1.443 15.357-3.094 20.25H431.25s-7.137-18.875-23.38-19.564c-34.47-1.462-54.965-9.967-54.965-9.967zm-9.968 249.467l12.03 3.783c-14.868 8.867-24.717 25.023-37.812 37.436-6.992-11.368-21.358-21.279-22.655-39.155 16.87.52 34.198 1.802 48.437-2.064z" fill="#fff"/>
</svg>
